<?xml version="1.0" encoding="UTF-8"?>
<svg version="1.1" xmlns="http://www.w3.org/2000/svg" width="40" height="40">
<path d="M0 0 C13.2 0 26.4 0 40 0 C40 13.2 40 26.4 40 40 C26.8 40 13.6 40 0 40 C0 26.8 0 13.6 0 0 Z " fill="#000101" transform="translate(0,0)"/>
<path d="M0 0 C0.99 0.33 1.98 0.66 3 1 C4.61315354 4.22630708 4.73354329 7.52423881 4 11 C1.36892544 13.45168311 -0.35798272 15.0497581 -4.0625 14.9375 C-4.701875 14.628125 -5.34125 14.31875 -6 14 C-6.9075 13.649375 -7.815 13.29875 -8.75 12.9375 C-11 11 -11 11 -11.6875 7.0625 C-11.46221683 3.4712213 -11.10028921 3.0956246 -8.3125 0.4375 C-4.75064361 -1.10821126 -3.58063856 -1.2580622 0 0 Z " fill="#0A3643" transform="translate(25,12)"/>
<path d="M0 0 C0.969375 0.185625 1.93875 0.37125 2.9375 0.5625 C3.948125 0.706875 4.95875 0.85125 6 1 C6.33 0.67 6.66 0.34 7 0 C9.67058851 -0.14115161 12.32432238 -0.04247107 15 0 C15.33 1.32 15.66 2.64 16 4 C10.72 4 5.44 4 0 4 C0 2.68 0 1.36 0 0 Z " fill="#23054D" transform="translate(7,28)"/>
<path d="M0 0 C2.375 0.75 2.375 0.75 4.375 1.75 C4.045 2.74 3.715 3.73 3.375 4.75 C0.8125 5.9375 0.8125 5.9375 -1.625 6.75 C-3.275 5.43 -4.925 4.11 -6.625 2.75 C-4.24919631 0.55018177 -3.30267199 -0.31454019 0 0 Z " fill="#3584B0" transform="translate(22.625,11.25)"/>
<path d="M0 0 C4.875 1.875 4.875 1.875 6 3 C6.04092937 5.33297433 6.04241723 7.66705225 6 10 C1.125 8.125 1.125 8.125 0 7 C-0.04092937 4.66702567 -0.04241723 2.33294775 0 0 Z " fill="#235FB0" transform="translate(15,16)"/>
<path d="M0 0 C0.25 3.3125 0.25 3.3125 0 7 C-1.875 8.9375 -1.875 8.9375 -4 10 C-4.66 10 -5.32 10 -6 10 C-6.3125 6.6875 -6.3125 6.6875 -6 3 C-2.22580645 0 -2.22580645 0 0 0 Z " fill="#225DAD" transform="translate(28,16)"/>
<path d="M0 0 C1.27875 -0.061875 2.5575 -0.12375 3.875 -0.1875 C4.95394531 -0.23970703 4.95394531 -0.23970703 6.0546875 -0.29296875 C6.69664063 -0.19628906 7.33859375 -0.09960938 8 0 C8.66 0.99 9.32 1.98 10 3 C6.7 3 3.4 3 0 3 C0 2.01 0 1.02 0 0 Z " fill="#6D6D6C" transform="translate(24,29)"/>
<path d="M0 0 C1.65 0 3.3 0 5 0 C5.33 1.32 5.66 2.64 6 4 C4.02 4 2.04 4 0 4 C0 2.68 0 1.36 0 0 Z " fill="#737372" transform="translate(17,28)"/>
<path d="M0 0 C-1.3125 1.5 -1.3125 1.5 -3 3 C-3.99 3 -4.98 3 -6 3 C-6 2.01 -6 1.02 -6 0 C-3.50907189 -1.24546405 -2.58919267 -0.7767578 0 0 Z " fill="#124242" transform="translate(20,11)"/>
</svg>
