<?xml version="1.0" encoding="UTF-8"?>
<svg version="1.1" xmlns="http://www.w3.org/2000/svg" width="600" height="200">
<path d="M0 0 C0.97484848 0.00222061 1.94969696 0.00444122 2.9540863 0.00672913 C4.05515213 0.00680466 5.15621796 0.00688019 6.29064941 0.00695801 C8.08749428 0.01469994 8.08749428 0.01469994 9.92063904 0.02259827 C11.14000656 0.02401321 12.35937408 0.02542816 13.61569214 0.02688599 C17.52856349 0.03250485 21.4413786 0.04506055 25.35423279 0.05775452 C27.99941426 0.06276709 30.64459662 0.06733041 33.28977966 0.07142639 C39.79045005 0.08248041 46.2910874 0.09923688 52.79173279 0.12025452 C52.79173279 3.09025452 52.79173279 6.06025452 52.79173279 9.12025452 C55.76173279 9.12025452 58.73173279 9.12025452 61.79173279 9.12025452 C61.79173279 15.72025452 61.79173279 22.32025452 61.79173279 29.12025452 C58.82173279 29.12025452 55.85173279 29.12025452 52.79173279 29.12025452 C52.79173279 31.43025452 52.79173279 33.74025452 52.79173279 36.12025452 C55.76173279 36.12025452 58.73173279 36.12025452 61.79173279 36.12025452 C61.79173279 42.72025452 61.79173279 49.32025452 61.79173279 56.12025452 C58.82173279 56.12025452 55.85173279 56.12025452 52.79173279 56.12025452 C52.79173279 59.09025452 52.79173279 62.06025452 52.79173279 65.12025452 C44.97720527 65.14552015 37.16268821 65.16308557 29.34812927 65.17518616 C26.68731798 65.18022835 24.02650947 65.18706188 21.3657074 65.19569397 C17.55067763 65.2077646 13.73568435 65.21348381 9.92063904 65.21791077 C8.12379417 65.22565269 8.12379417 65.22565269 6.29064941 65.23355103 C4.63905067 65.23366432 4.63905067 65.23366432 2.9540863 65.23377991 C1.97923782 65.23600052 1.00438934 65.23822113 0 65.24050903 C-2.20826721 65.12025452 -2.20826721 65.12025452 -3.20826721 64.12025452 C-3.30752494 62.16200754 -3.33626135 60.20015555 -3.33766174 58.23939514 C-3.3408139 56.98139099 -3.34396606 55.72338684 -3.34721375 54.42726135 C-3.34542396 53.04367539 -3.34337301 51.66008974 -3.34107971 50.27650452 C-3.3417528 48.86785363 -3.34272286 47.45920286 -3.34397888 46.05055237 C-3.34545563 43.09477129 -3.34330204 40.13902038 -3.33863831 37.1832428 C-3.33294102 33.38650868 -3.33622015 29.58984523 -3.34221077 25.79311371 C-3.34581701 22.88329024 -3.34467751 19.97348364 -3.34208298 17.06365967 C-3.34141388 15.66336051 -3.34224153 14.26305984 -3.34456253 12.86276245 C-3.34709004 10.90887988 -3.34255754 8.95499197 -3.33766174 7.00111389 C-3.33686615 5.88716248 -3.33607056 4.77321106 -3.33525085 3.62550354 C-3.16020776 0.17209387 -3.16020776 0.17209387 0 0 Z M16.79173279 11.12025452 C16.79173279 16.40025452 16.79173279 21.68025452 16.79173279 27.12025452 C25.04173279 27.12025452 33.29173279 27.12025452 41.79173279 27.12025452 C41.79173279 21.84025452 41.79173279 16.56025452 41.79173279 11.12025452 C33.54173279 11.12025452 25.29173279 11.12025452 16.79173279 11.12025452 Z M16.79173279 38.12025452 C16.79173279 43.40025452 16.79173279 48.68025452 16.79173279 54.12025452 C25.04173279 54.12025452 33.29173279 54.12025452 41.79173279 54.12025452 C41.79173279 48.84025452 41.79173279 43.56025452 41.79173279 38.12025452 C33.54173279 38.12025452 25.29173279 38.12025452 16.79173279 38.12025452 Z " fill="#000000" transform="translate(230.20826721191406,62.87974548339844)"/>
<path d="M0 0 C15.18 0 30.36 0 46 0 C46 2.97 46 5.94 46 9 C48.97 9 51.94 9 55 9 C55 12.63 55 16.26 55 20 C48.73 20 42.46 20 36 20 C36 17.03 36 14.06 36 11 C27.42 11 18.84 11 10 11 C10 16.28 10 21.56 10 27 C21.88 27 33.76 27 46 27 C46 29.97 46 32.94 46 36 C48.97 36 51.94 36 55 36 C55 42.6 55 49.2 55 56 C52.03 56 49.06 56 46 56 C46 58.97 46 61.94 46 65 C30.82 65 15.64 65 0 65 C0 62.03 0 59.06 0 56 C-2.97 56 -5.94 56 -9 56 C-9 52.37 -9 48.74 -9 45 C-2.73 45 3.54 45 10 45 C10 47.97 10 50.94 10 54 C18.58 54 27.16 54 36 54 C36 48.72 36 43.44 36 38 C24.12 38 12.24 38 0 38 C0 35.03 0 32.06 0 29 C-2.97 29 -5.94 29 -9 29 C-9 22.4 -9 15.8 -9 9 C-6.03 9 -3.06 9 0 9 C0 6.03 0 3.06 0 0 Z " fill="#1700AC" transform="translate(20,63)"/>
<path d="M0 0 C1.18613892 0.00785522 1.18613892 0.00785522 2.39624023 0.01586914 C3.16524658 0.0183667 3.93425293 0.02086426 4.7265625 0.0234375 C5.70939209 0.0325415 6.69222168 0.04164551 7.70483398 0.05102539 C12.37639648 0.08196289 12.37639648 0.08196289 17.14233398 0.11352539 C17.14233398 11.99352539 17.14233398 23.87352539 17.14233398 36.11352539 C25.06233398 35.61852539 25.06233398 35.61852539 33.14233398 35.11352539 C33.14233398 32.80352539 33.14233398 30.49352539 33.14233398 28.11352539 C35.18931812 26.06654125 39.44644639 26.41306846 42.14233398 26.11352539 C42.12170898 24.97915039 42.10108398 23.84477539 42.07983398 22.67602539 C42.14233398 19.11352539 42.14233398 19.11352539 43.14233398 18.11352539 C44.55803522 18.02700928 45.97792899 18.00647635 47.39624023 18.01586914 C48.67724609 18.02070312 48.67724609 18.02070312 49.98413086 18.02563477 C50.88196289 18.03401367 51.77979492 18.04239258 52.70483398 18.05102539 C53.6065332 18.05553711 54.50823242 18.06004883 55.43725586 18.06469727 C57.67230988 18.07652295 59.90733 18.09445901 62.14233398 18.11352539 C62.14233398 21.74352539 62.14233398 25.37352539 62.14233398 29.11352539 C59.17233398 29.11352539 56.20233398 29.11352539 53.14233398 29.11352539 C53.14233398 32.08352539 53.14233398 35.05352539 53.14233398 38.11352539 C50.17233398 38.11352539 47.20233398 38.11352539 44.14233398 38.11352539 C44.14233398 40.42352539 44.14233398 42.73352539 44.14233398 45.11352539 C47.11233398 45.11352539 50.08233398 45.11352539 53.14233398 45.11352539 C53.14233398 48.08352539 53.14233398 51.05352539 53.14233398 54.11352539 C56.11233398 54.11352539 59.08233398 54.11352539 62.14233398 54.11352539 C62.14233398 57.74352539 62.14233398 61.37352539 62.14233398 65.11352539 C58.99644455 65.14036236 55.85078127 65.16028441 52.70483398 65.17602539 C51.80700195 65.1844043 50.90916992 65.1927832 49.98413086 65.20141602 C48.703125 65.20625 48.703125 65.20625 47.39624023 65.21118164 C46.60548096 65.21641846 45.81472168 65.22165527 45 65.22705078 C43.14233398 65.11352539 43.14233398 65.11352539 42.14233398 64.11352539 C42.10140461 61.78055106 42.09991675 59.44647314 42.14233398 57.11352539 C40.84295898 56.96915039 39.54358398 56.82477539 38.20483398 56.67602539 C34.26733398 56.23852539 34.26733398 56.23852539 33.14233398 55.11352539 C33.14233398 52.80352539 33.14233398 50.49352539 33.14233398 48.11352539 C27.86233398 47.78352539 22.58233398 47.45352539 17.14233398 47.11352539 C17.14233398 53.05352539 17.14233398 58.99352539 17.14233398 65.11352539 C13.99644455 65.14036236 10.85078127 65.16028441 7.70483398 65.17602539 C6.80700195 65.1844043 5.90916992 65.1927832 4.98413086 65.20141602 C3.703125 65.20625 3.703125 65.20625 2.39624023 65.21118164 C1.60548096 65.21641846 0.81472168 65.22165527 0 65.22705078 C-1.85766602 65.11352539 -1.85766602 65.11352539 -2.85766602 64.11352539 C-2.95692375 62.15527841 -2.98566016 60.19342642 -2.98706055 58.23266602 C-2.99021271 56.97466187 -2.99336487 55.71665771 -2.99661255 54.42053223 C-2.99482277 53.03694626 -2.99277181 51.65336061 -2.99047852 50.26977539 C-2.9911516 48.8611245 -2.99212167 47.45247373 -2.99337769 46.04382324 C-2.99485444 43.08804216 -2.99270085 40.13229125 -2.98803711 37.17651367 C-2.98233982 33.37977955 -2.98561895 29.58311611 -2.99160957 25.78638458 C-2.99521581 22.87656111 -2.99407631 19.96675451 -2.99148178 17.05693054 C-2.99081268 15.65663139 -2.99164033 14.25633072 -2.99396133 12.85603333 C-2.99648884 10.90215075 -2.99195635 8.94826284 -2.98706055 6.99438477 C-2.98626495 5.88043335 -2.98546936 4.76648193 -2.98464966 3.61877441 C-2.80992869 0.17171992 -2.80992869 0.17171992 0 0 Z " fill="#000001" transform="translate(517.857666015625,62.886474609375)"/>
<path d="M0 0 C1.22244667 0.00333092 1.22244667 0.00333092 2.46958923 0.00672913 C3.85090782 0.00684242 3.85090782 0.00684242 5.26013184 0.00695801 C6.2611644 0.01211929 7.26219696 0.01728058 8.29356384 0.02259827 C9.31316696 0.02401321 10.33277008 0.02542816 11.38327026 0.02688599 C14.65417867 0.03250355 17.92501972 0.04505902 21.19590759 0.05775452 C23.40749515 0.06276725 25.61908377 0.06733055 27.83067322 0.07142639 C33.26494413 0.08247869 38.69916443 0.09975508 44.13340759 0.12025452 C44.13340759 3.09025452 44.13340759 6.06025452 44.13340759 9.12025452 C47.10340759 9.12025452 50.07340759 9.12025452 53.13340759 9.12025452 C53.13340759 18.69025452 53.13340759 28.26025452 53.13340759 38.12025452 C50.16340759 38.12025452 47.19340759 38.12025452 44.13340759 38.12025452 C44.13340759 41.09025452 44.13340759 44.06025452 44.13340759 47.12025452 C37.6006142 47.14489798 31.06784762 47.16308743 24.53501892 47.17518616 C22.31073028 47.18022768 20.08644496 47.18706074 17.86216736 47.19569397 C14.67262451 47.2077675 11.4831253 47.21348447 8.29356384 47.21791077 C6.792015 47.22565269 6.792015 47.22565269 5.26013184 47.23355103 C4.33925278 47.23362656 3.41837372 47.23370209 2.46958923 47.23377991 C1.65462479 47.23600052 0.83966034 47.23822113 0 47.24050903 C-1.86659241 47.12025452 -1.86659241 47.12025452 -2.86659241 46.12025452 C-3.00774402 43.44966601 -2.90906348 40.79593214 -2.86659241 38.12025452 C-4.16596741 38.14087952 -5.46534241 38.16150452 -6.80409241 38.18275452 C-8.15824874 38.20424906 -9.51415323 38.1917365 -10.86659241 38.12025452 C-12.66938432 36.3174626 -11.99695846 33.5797775 -11.99940491 31.15150452 C-12.00069397 29.94107483 -12.00198303 28.73064514 -12.00331116 27.48353577 C-11.99944397 26.20865295 -11.99557678 24.93377014 -11.99159241 23.62025452 C-11.99545959 22.3453717 -11.99932678 21.07048889 -12.00331116 19.75697327 C-12.00202209 18.54654358 -12.00073303 17.33611389 -11.99940491 16.08900452 C-11.99827698 14.96945374 -11.99714905 13.84990295 -11.99598694 12.69642639 C-11.86659241 10.12025452 -11.86659241 10.12025452 -10.86659241 9.12025452 C-8.1960039 8.9791029 -5.54227003 9.07778344 -2.86659241 9.12025452 C-2.88721741 7.82087952 -2.90784241 6.52150452 -2.92909241 5.18275452 C-2.95058695 3.82859818 -2.93807439 2.47269369 -2.86659241 1.12025452 C-1.86659241 0.12025452 -1.86659241 0.12025452 0 0 Z M8.13340759 11.12025452 C8.13340759 19.37025452 8.13340759 27.62025452 8.13340759 36.12025452 C16.38340759 36.12025452 24.63340759 36.12025452 33.13340759 36.12025452 C33.13340759 27.87025452 33.13340759 19.62025452 33.13340759 11.12025452 C24.88340759 11.12025452 16.63340759 11.12025452 8.13340759 11.12025452 Z " fill="#000000" transform="translate(382.86659240722656,80.87974548339844)"/>
<path d="M0 0 C6.53279339 -0.02464347 13.06555998 -0.04283291 19.59838867 -0.05493164 C21.82267732 -0.05997317 24.04696263 -0.06680623 26.27124023 -0.07543945 C29.46078309 -0.08751298 32.65028229 -0.09322996 35.83984375 -0.09765625 C37.34139259 -0.10539818 37.34139259 -0.10539818 38.87327576 -0.11329651 C39.79415482 -0.11337204 40.71503387 -0.11344757 41.66381836 -0.11352539 C42.47878281 -0.115746 43.29374725 -0.11796661 44.13340759 -0.12025452 C46 0 46 0 47 1 C47.14115161 3.67058851 47.04247107 6.32432238 47 9 C48.299375 8.979375 49.59875 8.95875 50.9375 8.9375 C52.29165633 8.91600546 53.64756083 8.92851801 55 9 C56.80279191 10.80279191 56.13036605 13.54047701 56.1328125 15.96875 C56.13410156 17.17917969 56.13539063 18.38960937 56.13671875 19.63671875 C56.13285156 20.91160156 56.12898438 22.18648437 56.125 23.5 C56.12886719 24.77488281 56.13273437 26.04976562 56.13671875 27.36328125 C56.13542969 28.57371094 56.13414062 29.78414062 56.1328125 31.03125 C56.13168457 32.15080078 56.13055664 33.27035156 56.12939453 34.42382812 C56 37 56 37 55 38 C52.32941149 38.14115161 49.67567762 38.04247107 47 38 C47.020625 39.299375 47.04125 40.59875 47.0625 41.9375 C47.08399454 43.29165633 47.07148199 44.64756083 47 46 C46 47 46 47 44.13340759 47.12025452 C43.31844315 47.11803391 42.5034787 47.11581329 41.66381836 47.11352539 C40.28249977 47.11341209 40.28249977 47.11341209 38.87327576 47.11329651 C37.87224319 47.10813522 36.87121063 47.10297394 35.83984375 47.09765625 C34.82024063 47.0962413 33.80063751 47.09482635 32.75013733 47.09336853 C29.47922893 47.08775097 26.20838787 47.0751955 22.9375 47.0625 C20.72591244 47.05748726 18.51432382 47.05292396 16.30273438 47.04882812 C10.86846346 47.03777583 5.43424316 47.02049944 0 47 C0 44.03 0 41.06 0 38 C-2.97 38 -5.94 38 -9 38 C-9 28.43 -9 18.86 -9 9 C-6.03 9 -3.06 9 0 9 C0 6.03 0 3.06 0 0 Z M11 11 C11 19.25 11 27.5 11 36 C19.25 36 27.5 36 36 36 C36 27.75 36 19.5 36 11 C27.75 11 19.5 11 11 11 Z " fill="#1700AC" transform="translate(92,81)"/>
<path d="M0 0 C3.96930989 -0.02465881 7.93859034 -0.04284023 11.90795898 -0.05493164 C13.25920386 -0.05997057 14.61044326 -0.06680177 15.96166992 -0.07543945 C17.90020434 -0.08752419 19.838778 -0.09269828 21.77734375 -0.09765625 C23.52905884 -0.10551147 23.52905884 -0.10551147 25.31616211 -0.11352539 C28 0 28 0 29 1 C29.09346915 2.65738443 29.11744977 4.31874644 29.11352539 5.97875977 C29.11344986 7.03978409 29.11337433 8.10080841 29.11329651 9.19398499 C29.10813522 10.348134 29.10297394 11.50228302 29.09765625 12.69140625 C29.0962413 13.86638168 29.09482635 15.04135712 29.09336853 16.25193787 C29.08774992 20.02215064 29.07519426 23.79230504 29.0625 27.5625 C29.0574874 30.11132727 29.05292408 32.66015547 29.04882812 35.20898438 C29.03777444 41.47267633 29.02101821 47.73633399 29 54 C30.82337891 53.98259766 30.82337891 53.98259766 32.68359375 53.96484375 C34.26822764 53.95546722 35.85286318 53.94636687 37.4375 53.9375 C38.64116211 53.92493164 38.64116211 53.92493164 39.86914062 53.91210938 C41.91295221 53.9034857 43.95683902 53.9477185 46 54 C47 55 47 55 47.1328125 57.03125 C47.13023437 57.8459375 47.12765625 58.660625 47.125 59.5 C47.12886719 60.72203125 47.12886719 60.72203125 47.1328125 61.96875 C47 64 47 64 46 65 C44.28134591 65.0935919 42.55884256 65.11744611 40.83764648 65.11352539 C39.73658066 65.11344986 38.63551483 65.11337433 37.50108337 65.11329651 C36.3031868 65.10813522 35.10529022 65.10297394 33.87109375 65.09765625 C32.65172623 65.0962413 31.4323587 65.09482635 30.17604065 65.09336853 C26.2631693 65.08774967 22.35035419 65.07519396 18.4375 65.0625 C15.79231853 65.05748743 13.14713617 65.0529241 10.50195312 65.04882812 C4.00128026 65.03777411 -2.49935032 65.02049683 -9 65 C-9 61.37 -9 57.74 -9 54 C-3.06 54 2.88 54 9 54 C9 39.81 9 25.62 9 11 C6.03 11 3.06 11 0 11 C0 7.37 0 3.74 0 0 Z " fill="#1700AC" transform="translate(173,63)"/>
<path d="M0 0 C1.16781006 0.00523682 2.33562012 0.01047363 3.53881836 0.01586914 C4.67327393 0.0183667 5.80772949 0.02086426 6.9765625 0.0234375 C9.15560181 0.03709351 9.15560181 0.03709351 11.37866211 0.05102539 C18.27772461 0.08196289 18.27772461 0.08196289 25.31616211 0.11352539 C25.31616211 17.93352539 25.31616211 35.75352539 25.31616211 54.11352539 C31.25616211 54.11352539 37.19616211 54.11352539 43.31616211 54.11352539 C43.31616211 57.74352539 43.31616211 61.37352539 43.31616211 65.11352539 C35.50162997 65.13816495 27.68712023 65.15635644 19.87255859 65.16845703 C17.2117473 65.17349922 14.55093879 65.18033275 11.89013672 65.18896484 C8.07510695 65.20103548 4.26011367 65.20675468 0.44506836 65.21118164 C-1.3517765 65.21892357 -1.3517765 65.21892357 -3.18492126 65.2268219 C-4.83652 65.2269352 -4.83652 65.2269352 -6.52148438 65.22705078 C-7.49633286 65.22927139 -8.47118134 65.231492 -9.47557068 65.23377991 C-11.68383789 65.11352539 -11.68383789 65.11352539 -12.68383789 64.11352539 C-12.78174359 62.61614415 -12.81358653 61.11409647 -12.80883789 59.61352539 C-12.81141602 58.79883789 -12.81399414 57.98415039 -12.81665039 57.14477539 C-12.68383789 55.11352539 -12.68383789 55.11352539 -11.68383789 54.11352539 C-6.07383789 54.11352539 -0.46383789 54.11352539 5.31616211 54.11352539 C5.31616211 39.92352539 5.31616211 25.73352539 5.31616211 11.11352539 C2.67616211 11.11352539 0.03616211 11.11352539 -2.68383789 11.11352539 C-3.68383789 10.11352539 -3.68383789 10.11352539 -3.81665039 8.08227539 C-3.81407227 7.26758789 -3.81149414 6.45290039 -3.80883789 5.61352539 C-3.81141602 4.79883789 -3.81399414 3.98415039 -3.81665039 3.14477539 C-3.61155223 0.00797995 -3.17432988 0.13427303 0 0 Z " fill="#000000" transform="translate(320.683837890625,62.886474609375)"/>
<path d="M0 0 C0.97484848 0.00222061 1.94969696 0.00444122 2.9540863 0.00672913 C4.05515213 0.00680466 5.15621796 0.00688019 6.29064941 0.00695801 C7.48854599 0.01211929 8.68644257 0.01728058 9.92063904 0.02259827 C11.14000656 0.02401321 12.35937408 0.02542816 13.61569214 0.02688599 C17.52856349 0.03250485 21.4413786 0.04506055 25.35423279 0.05775452 C27.99941426 0.06276709 30.64459662 0.06733041 33.28977966 0.07142639 C39.79045253 0.08248041 46.29108311 0.09975768 52.79173279 0.12025452 C52.79173279 3.75025452 52.79173279 7.38025452 52.79173279 11.12025452 C37.94173279 11.12025452 23.09173279 11.12025452 7.79173279 11.12025452 C7.79173279 19.37025452 7.79173279 27.62025452 7.79173279 36.12025452 C22.64173279 36.12025452 37.49173279 36.12025452 52.79173279 36.12025452 C52.79173279 39.75025452 52.79173279 43.38025452 52.79173279 47.12025452 C44.97720065 47.14489408 37.16269091 47.16308557 29.34812927 47.17518616 C26.68731798 47.18022835 24.02650947 47.18706188 21.3657074 47.19569397 C17.55067763 47.2077646 13.73568435 47.21348381 9.92063904 47.21791077 C8.72274246 47.22307205 7.52484589 47.22823334 6.29064941 47.23355103 C4.63905067 47.23366432 4.63905067 47.23366432 2.9540863 47.23377991 C1.49181358 47.23711082 1.49181358 47.23711082 0 47.24050903 C-2.20826721 47.12025452 -2.20826721 47.12025452 -3.20826721 46.12025452 C-3.24919659 43.78728019 -3.25068444 41.45320227 -3.20826721 39.12025452 C-4.50764221 38.97587952 -5.80701721 38.83150452 -7.14576721 38.68275452 C-11.08326721 38.24525452 -11.08326721 38.24525452 -12.20826721 37.12025452 C-12.30809779 35.13268424 -12.33907474 33.14157932 -12.34107971 31.15150452 C-12.34236877 29.94107483 -12.34365784 28.73064514 -12.34498596 27.48353577 C-12.34111877 26.20865295 -12.33725159 24.93377014 -12.33326721 23.62025452 C-12.3371344 22.3453717 -12.34100159 21.07048889 -12.34498596 19.75697327 C-12.3436969 18.54654358 -12.34240784 17.33611389 -12.34107971 16.08900452 C-12.33995178 14.96945374 -12.33882385 13.84990295 -12.33766174 12.69642639 C-12.20826721 10.12025452 -12.20826721 10.12025452 -11.20826721 9.12025452 C-8.553636 8.66565594 -5.88637583 8.41782214 -3.20826721 8.12025452 C-3.22889221 6.98587952 -3.24951721 5.85150452 -3.27076721 4.68275452 C-3.19166287 0.17380681 -3.19166287 0.17380681 0 0 Z " fill="#000001" transform="translate(455.20826721191406,80.87974548339844)"/>
<path d="M0 0 C0.33 0 0.66 0 1 0 C1 17.16 1 34.32 1 52 C0.67 52 0.34 52 0 52 C0 34.84 0 17.68 0 0 Z " fill="#1700A7" transform="translate(347,64)"/>
<path d="M0 0 C0.33 0 0.66 0 1 0 C1 13.53 1 27.06 1 41 C0.67 41 0.34 41 0 41 C0 27.47 0 13.94 0 0 Z " fill="#1600AC" transform="translate(180,75)"/>
<path d="M0 0 C0.33 0 0.66 0 1 0 C1 11.22 1 22.44 1 34 C0.67 34 0.34 34 0 34 C0 22.78 0 11.56 0 0 Z " fill="#1700A5" transform="translate(536,64)"/>
<path d="M0 0 C0.33 0 0.66 0 1 0 C1 8.91 1 17.82 1 27 C0.67 27 0.34 27 0 27 C0 18.09 0 9.18 0 0 Z " fill="#1800AB" transform="translate(437,91)"/>
<path d="M0 0 C0.33 0 0.66 0 1 0 C1 8.91 1 17.82 1 27 C0.67 27 0.34 27 0 27 C0 18.09 0 9.18 0 0 Z " fill="#1800AB" transform="translate(81,91)"/>
<path d="M0 0 C0.33 0 0.66 0 1 0 C1 7.59 1 15.18 1 23 C0.67 23 0.34 23 0 23 C0 15.41 0 7.82 0 0 Z " fill="#15009C" transform="translate(464,93)"/>
<path d="M0 0 C0.33 0 0.66 0 1 0 C1 7.59 1 15.18 1 23 C0.67 23 0.34 23 0 23 C0 15.41 0 7.82 0 0 Z " fill="#1600AC" transform="translate(126,93)"/>
<path d="M0 0 C0.33 0 0.66 0 1 0 C1 7.59 1 15.18 1 23 C0.67 23 0.34 23 0 23 C0 15.41 0 7.82 0 0 Z " fill="#1800AB" transform="translate(392,93)"/>
<path d="M0 0 C0.33 0 0.66 0 1 0 C1 5.94 1 11.88 1 18 C0.67 18 0.34 18 0 18 C0 12.06 0 6.12 0 0 Z " fill="#1800AB" transform="translate(293,100)"/>
<path d="M0 0 C0.33 0 0.66 0 1 0 C1 5.94 1 11.88 1 18 C0.67 18 0.34 18 0 18 C0 12.06 0 6.12 0 0 Z " fill="#1800AB" transform="translate(293,73)"/>
<path d="M0 0 C0.33 0 0.66 0 1 0 C1 5.94 1 11.88 1 18 C0.67 18 0.34 18 0 18 C0 12.06 0 6.12 0 0 Z " fill="#1800AB" transform="translate(9,73)"/>
<path d="M0 0 C0.33 0 0.66 0 1 0 C1 5.28 1 10.56 1 16 C0.67 16 0.34 16 0 16 C0 10.72 0 5.44 0 0 Z " fill="#1600A0" transform="translate(536,111)"/>
<path d="M0 0 C0.33 0 0.66 0 1 0 C1 4.62 1 9.24 1 14 C0.67 14 0.34 14 0 14 C0 9.38 0 4.76 0 0 Z " fill="#1700AB" transform="translate(54,102)"/>
<path d="M0 0 C0.33 0 0.66 0 1 0 C1 4.62 1 9.24 1 14 C0.67 14 0.34 14 0 14 C0 9.38 0 4.76 0 0 Z " fill="#1800AB" transform="translate(248,102)"/>
<path d="M0 0 C0.33 0 0.66 0 1 0 C1 4.62 1 9.24 1 14 C0.67 14 0.34 14 0 14 C0 9.38 0 4.76 0 0 Z " fill="#1800AB" transform="translate(248,75)"/>
<path d="M0 0 C0.33 0 0.66 0 1 0 C1 2.97 1 5.94 1 9 C0.67 9 0.34 9 0 9 C0 6.03 0 3.06 0 0 Z " fill="#000000" transform="translate(581,118)"/>
<path d="M0 0 C0.33 0 0.66 0 1 0 C1 2.97 1 5.94 1 9 C0.67 9 0.34 9 0 9 C0 6.03 0 3.06 0 0 Z " fill="#000000" transform="translate(509,118)"/>
<path d="M0 0 C0.33 0 0.66 0 1 0 C1 2.97 1 5.94 1 9 C0.67 9 0.34 9 0 9 C0 6.03 0 3.06 0 0 Z " fill="#1800AB" transform="translate(365,118)"/>
<path d="M0 0 C0.33 0 0.66 0 1 0 C1 2.97 1 5.94 1 9 C0.67 9 0.34 9 0 9 C0 6.03 0 3.06 0 0 Z " fill="#1600AD" transform="translate(162,118)"/>
<path d="M0 0 C0.33 0 0.66 0 1 0 C1 2.97 1 5.94 1 9 C0.67 9 0.34 9 0 9 C0 6.03 0 3.06 0 0 Z " fill="#1800AB" transform="translate(9,109)"/>
<path d="M0 0 C0.33 0 0.66 0 1 0 C1 2.97 1 5.94 1 9 C0.67 9 0.34 9 0 9 C0 6.03 0 3.06 0 0 Z " fill="#000000" transform="translate(581,82)"/>
<path d="M0 0 C0.33 0 0.66 0 1 0 C1 2.97 1 5.94 1 9 C0.67 9 0.34 9 0 9 C0 6.03 0 3.06 0 0 Z " fill="#000000" transform="translate(509,82)"/>
<path d="M0 0 C0.33 0 0.66 0 1 0 C1 2.97 1 5.94 1 9 C0.67 9 0.34 9 0 9 C0 6.03 0 3.06 0 0 Z " fill="#1600AD" transform="translate(171,64)"/>
<path d="M0 0 C0.33 0 0.66 0 1 0 C1 2.31 1 4.62 1 7 C0.67 7 0.34 7 0 7 C0 4.69 0 2.38 0 0 Z " fill="#140092" transform="translate(428,120)"/>
<path d="M0 0 C0.33 0 0.66 0 1 0 C1 2.31 1 4.62 1 7 C0.67 7 0.34 7 0 7 C0 4.69 0 2.38 0 0 Z " fill="#140092" transform="translate(284,120)"/>
<path d="M0 0 C0.33 0 0.66 0 1 0 C1 2.31 1 4.62 1 7 C0.67 7 0.34 7 0 7 C0 4.69 0 2.38 0 0 Z " fill="#1600AC" transform="translate(90,120)"/>
<path d="M0 0 C0.33 0 0.66 0 1 0 C1 2.31 1 4.62 1 7 C0.67 7 0.34 7 0 7 C0 4.69 0 2.38 0 0 Z " fill="#1700AB" transform="translate(18,120)"/>
<path d="M0 0 C0.33 0 0.66 0 1 0 C1 2.31 1 4.62 1 7 C0.67 7 0.34 7 0 7 C0 4.69 0 2.38 0 0 Z " fill="#030018" transform="translate(572,109)"/>
<path d="M0 0 C0.33 0 0.66 0 1 0 C1 2.31 1 4.62 1 7 C0.67 7 0.34 7 0 7 C0 4.69 0 2.38 0 0 Z " fill="#030018" transform="translate(572,93)"/>
<path d="M0 0 C0.33 0 0.66 0 1 0 C1 2.31 1 4.62 1 7 C0.67 7 0.34 7 0 7 C0 4.69 0 2.38 0 0 Z " fill="#1700AB" transform="translate(18,93)"/>
<path d="M0 0 C0.33 0 0.66 0 1 0 C1 2.31 1 4.62 1 7 C0.67 7 0.34 7 0 7 C0 4.69 0 2.38 0 0 Z " fill="#140092" transform="translate(428,82)"/>
<path d="M0 0 C0.33 0 0.66 0 1 0 C1 2.31 1 4.62 1 7 C0.67 7 0.34 7 0 7 C0 4.69 0 2.38 0 0 Z " fill="#1600AC" transform="translate(90,82)"/>
<path d="M0 0 C0.33 0 0.66 0 1 0 C1 2.31 1 4.62 1 7 C0.67 7 0.34 7 0 7 C0 4.69 0 2.38 0 0 Z " fill="#1700AB" transform="translate(54,75)"/>
<path d="M0 0 C0.33 0 0.66 0 1 0 C1 2.31 1 4.62 1 7 C0.67 7 0.34 7 0 7 C0 4.69 0 2.38 0 0 Z " fill="#140092" transform="translate(284,64)"/>
<path d="M0 0 C0.33 0 0.66 0 1 0 C1 2.31 1 4.62 1 7 C0.67 7 0.34 7 0 7 C0 4.69 0 2.38 0 0 Z " fill="#1700AB" transform="translate(18,64)"/>
<path d="M0 0 C0.33 0 0.66 0 1 0 C1 1.65 1 3.3 1 5 C0.67 5 0.34 5 0 5 C0 3.35 0 1.7 0 0 Z " fill="#090045" transform="translate(563,102)"/>
<path d="M0 0 C0.33 0 0.66 0 1 0 C1 1.65 1 3.3 1 5 C0.67 5 0.34 5 0 5 C0 3.35 0 1.7 0 0 Z " fill="#0E0066" transform="translate(284,93)"/>
<path d="M0 0 C2 1 2 1 2 1 Z " fill="#1700AE" transform="translate(31,115)"/>
<path d="M0 0 C2 1 2 1 2 1 Z " fill="#1700AE" transform="translate(31,88)"/>
<path d="M0 0 C2 1 2 1 2 1 Z " fill="#1700AE" transform="translate(31,75)"/>
<path d="" fill="#1800AB" transform="translate(0,0)"/>
<path d="" fill="#1800AB" transform="translate(0,0)"/>
<path d="" fill="#1800AB" transform="translate(0,0)"/>
<path d="" fill="#1800AC" transform="translate(0,0)"/>
<path d="" fill="#1800AC" transform="translate(0,0)"/>
<path d="" fill="#1800AB" transform="translate(0,0)"/>
<path d="" fill="#1800AB" transform="translate(0,0)"/>
<path d="" fill="#1800AB" transform="translate(0,0)"/>
<path d="" fill="#1600AD" transform="translate(0,0)"/>
<path d="" fill="#1600AD" transform="translate(0,0)"/>
<path d="" fill="#1800AB" transform="translate(0,0)"/>
<path d="" fill="#1800AB" transform="translate(0,0)"/>
<path d="" fill="#1800AB" transform="translate(0,0)"/>
<path d="" fill="#1800AC" transform="translate(0,0)"/>
<path d="" fill="#1800AB" transform="translate(0,0)"/>
<path d="" fill="#1600AD" transform="translate(0,0)"/>
<path d="" fill="#1800AB" transform="translate(0,0)"/>
<path d="" fill="#1800AB" transform="translate(0,0)"/>
<path d="" fill="#1800AB" transform="translate(0,0)"/>
<path d="" fill="#1800AB" transform="translate(0,0)"/>
<path d="" fill="#1800AC" transform="translate(0,0)"/>
<path d="" fill="#1800AB" transform="translate(0,0)"/>
<path d="" fill="#1800AB" transform="translate(0,0)"/>
<path d="" fill="#1800AC" transform="translate(0,0)"/>
</svg>
